#N canvas 1066 203 450 431 12;
#X obj 68 138 unpack f f;
#X obj 63 294 osc~;
#X obj 61 354 dac~;
#X floatatom 63 188 5 0 0 0 - - - 0;
#X obj 63 255 mtof;
#X obj 125 85 netreceive -u -b 8000;
#X floatatom 150 186 5 0 0 0 - - - 0;
#X connect 0 0 3 0;
#X connect 0 1 6 0;
#X connect 1 0 2 0;
#X connect 1 0 2 1;
#X connect 3 0 4 0;
#X connect 4 0 1 0;
#X connect 5 0 0 0;
