#N canvas 138 38 1315 693 12;
#X obj 58 28 inlet;
#X obj 55 418 outlet~;
#X obj 55 331 osc~;
#X obj 149 27 inlet;
#X obj 55 198 - 16;
#X obj 55 372 *~, f 28;
#X obj 247 232 vline~;
#X obj 88 115 array get \$0-pitches;
#X floatatom 133 150 5 0 0 0 - - - 0;
#X obj 249 115 array get \$0-velocities;
#X obj 246 324 *~, f 9;
#N canvas 0 22 450 278 (subpatch) 0;
#X array \$0-pitches 6 float 3;
#A 0 -24 -20 -19 -12 -19 -20;
#X coords 0 -24 6 0 200 140 1 0 0;
#X restore 505 208 graph;
#X obj 509 152 array set \$0-pitches;
#X obj 509 69 loadbang;
#X msg 509 119 -24 -20 -19 -12 -19 -20;
#N canvas 0 22 450 278 (subpatch) 0;
#X array \$0-velocities 6 float 3;
#A 0 0.85 0.35 0.45 0.95 0.45 0.55;
#X coords 0 0 6 1 200 140 1 0 0;
#X restore 751 206 graph;
#X obj 752 150 array set \$0-velocities;
#X obj 249 147 t b f, f 9;
#X msg 247 191 1 75 \, 0 350 100;
#X text 298 235 < 'Soft Pluck' Envelope;
#X msg 752 117 0.85 0.35 0.45 0.95 0.45 0.55;
#X text 544 358 Arp Note Sequence;
#X text 781 355 Arp Velocity Sequence;
#X obj 55 293 line~;
#X obj 55 227 mtof;
#X obj 55 261 pack f 25;
#X obj 308 291 line~;
#X obj 309 261 pack f 10;
#X obj 88 149 t b f;
#X connect 0 0 4 0;
#X connect 2 0 5 0;
#X connect 3 0 7 0;
#X connect 3 0 9 0;
#X connect 4 0 24 0;
#X connect 5 0 1 0;
#X connect 6 0 10 0;
#X connect 7 0 8 0;
#X connect 7 0 28 0;
#X connect 9 0 17 0;
#X connect 10 0 5 1;
#X connect 13 0 14 0;
#X connect 13 0 20 0;
#X connect 14 0 12 0;
#X connect 17 0 18 0;
#X connect 17 1 27 0;
#X connect 18 0 6 0;
#X connect 20 0 16 0;
#X connect 23 0 2 0;
#X connect 24 0 25 0;
#X connect 25 0 23 0;
#X connect 26 0 10 1;
#X connect 27 0 26 0;
#X connect 28 0 4 0;
#X connect 28 1 4 1;
