#N canvas 447 156 853 375 12;
#X obj 45 29 inlet;
#X obj 46 419 outlet~;
#X obj 46 257 osc~;
#X obj 47 110 mtof;
#X obj 169 272 +~ 1;
#X obj 170 96 random 10;
#X obj 170 125 / 10;
#X obj 169 300 *~ 0.5;
#X obj 47 373 *~;
#X obj 146 417 outlet~;
#X obj 146 371 *~;
#X obj 259 272 +~ 1;
#X obj 259 300 *~ 0.5;
#X obj 170 235 osc~;
#X text 355 183 randomised stereo panning phase-offset;
#X obj 48 213 line~;
#X obj 48 182 pack f 50;
#X obj 170 163 pack f 25;
#X obj 170 197 line~;
#X obj 258 236 *~ -1;
#X obj 47 58 t f b, f 18;
#X connect 0 0 20 0;
#X connect 2 0 8 0;
#X connect 2 0 10 0;
#X connect 3 0 16 0;
#X connect 4 0 7 0;
#X connect 5 0 6 0;
#X connect 6 0 17 0;
#X connect 7 0 8 1;
#X connect 8 0 1 0;
#X connect 10 0 9 0;
#X connect 11 0 12 0;
#X connect 12 0 10 1;
#X connect 13 0 4 0;
#X connect 13 0 19 0;
#X connect 15 0 2 0;
#X connect 16 0 15 0;
#X connect 17 0 18 0;
#X connect 18 0 13 0;
#X connect 19 0 11 0;
#X connect 20 0 3 0;
#X connect 20 1 5 0;
