#N canvas 293 38 642 727 10;
#X obj 62 107 keyname;
#X obj 101 195 bng 15 250 50 0 empty empty empty 17 7 0 10 #fcfcfc #000000 #000000;
#X obj 101 141 spigot;
#X obj 141 194 bng 15 250 50 0 empty empty empty 17 7 0 10 #fcfcfc #000000 #000000;
#X floatatom 118 527 5 0 0 0 - - - 0;
#X obj 101 265 t f b;
#X obj 101 287 +;
#X obj 118 549 outlet;
#X text 150 142 < gate opens only if key pressed;
#X obj 101 167 sel Up Down;
#X obj 132 306 vsl 16 136 0 127 0 1 empty empty empty 0 0 0 10 #fcfcfc #000000 #000000 6199 1;
#X obj 118 504 int;
#X text 147 503 < round to nearest integer;
#X obj 101 232 + 1;
#X obj 141 231 - 1;
#X text 172 231 < add or subtract 1;
#X text 155 303 < feed back current position;
#X obj 118 468 clip 0 127;
#X text 206 469 < clip to not be navigated out of slider range by arrow keys;
#X connect 0 0 2 1;
#X connect 0 1 2 0;
#X connect 1 0 13 0;
#X connect 2 0 9 0;
#X connect 3 0 14 0;
#X connect 4 0 7 0;
#X connect 5 0 6 0;
#X connect 5 1 10 0;
#X connect 6 0 10 0;
#X connect 9 0 1 0;
#X connect 9 1 3 0;
#X connect 10 0 17 0;
#X connect 11 0 4 0;
#X connect 13 0 5 0;
#X connect 14 0 5 0;
#X connect 17 0 11 0;
#X connect 17 0 6 1;
#X coords 0 -1 1 1 20 150 2 130 300;
